HIERARCHY
ROOT joint_Root
{
	OFFSET 0.0 0.0 0.0
	CHANNELS 6 Xposition Yposition Zposition Zrotation Xrotation Yrotation 
	JOINT Hips
	{
		OFFSET 4.5925 91.4895 -427.239
		CHANNELS 6 Xposition Yposition Zposition Zrotation Xrotation Yrotation 
		JOINT Spine
		{
			OFFSET 15.7357 0.0 0.0
			CHANNELS 6 Xposition Yposition Zposition Zrotation Xrotation Yrotation 
			JOINT Chest
			{
				OFFSET 8.98455 -0.406207 0.0
				CHANNELS 6 Xposition Yposition Zposition Zrotation Xrotation Yrotation 
				JOINT Neck
				{
					OFFSET 16.3773 0.0 0.0
					CHANNELS 6 Xposition Yposition Zposition Zrotation Xrotation Yrotation 
					JOINT Head
					{
						OFFSET 6.45672 0.0 0.0
						CHANNELS 6 Xposition Yposition Zposition Zrotation Xrotation Yrotation 
						End Site
						{
							OFFSET 0.0 0.0 0.0
						}
					}
				}
				JOINT Shoulder_L
				{
					OFFSET 12.9942 -0.242716 4.98039
					CHANNELS 6 Xposition Yposition Zposition Zrotation Xrotation Yrotation 
					JOINT UpperArm_L
					{
						OFFSET 5.34809 0.0 0.0
						CHANNELS 6 Xposition Yposition Zposition Zrotation Xrotation Yrotation 
						JOINT LowerArm_L
						{
							OFFSET 24.3286 1.87007e-05 0.0
							CHANNELS 6 Xposition Yposition Zposition Zrotation Xrotation Yrotation 
							JOINT Hand_L
							{
								OFFSET 22.2916 0.0 0.0
								CHANNELS 6 Xposition Yposition Zposition Zrotation Xrotation Yrotation 
								End Site
								{
									OFFSET 0.0 0.0 0.0
								}
							}
						}
					}
				}
				JOINT Shoulder_R
				{
					OFFSET 12.9945 -0.242716 -4.98039
					CHANNELS 6 Xposition Yposition Zposition Zrotation Xrotation Yrotation 
					JOINT UpperArm_R
					{
						OFFSET -5.34813 0.0 0.0
						CHANNELS 6 Xposition Yposition Zposition Zrotation Xrotation Yrotation 
						JOINT LowerArm_R
						{
							OFFSET -24.3289 0.000322201 0.0
							CHANNELS 6 Xposition Yposition Zposition Zrotation Xrotation Yrotation 
							JOINT Hand_R
							{
								OFFSET -22.2915 -0.000108084 0.0
								CHANNELS 6 Xposition Yposition Zposition Zrotation Xrotation Yrotation 
								End Site
								{
									OFFSET 0.0 0.0 0.0
								}
							}
						}
					}
				}
			}
		}
		JOINT UpperLeg_L
		{
			OFFSET -2.19248 -6.46944 0.0
			CHANNELS 6 Xposition Yposition Zposition Zrotation Xrotation Yrotation 
			JOINT LowerLeg_L
			{
				OFFSET 39.0811 0.0 -1.23785e-05
				CHANNELS 6 Xposition Yposition Zposition Zrotation Xrotation Yrotation 
				JOINT Foot_L
				{
					OFFSET 40.9854 0.0 -1.26872e-05
					CHANNELS 6 Xposition Yposition Zposition Zrotation Xrotation Yrotation 
					JOINT Toes_L
					{
						OFFSET 11.7543 0.0 0.0
						CHANNELS 6 Xposition Yposition Zposition Zrotation Xrotation Yrotation 
						End Site
						{
							OFFSET 0.0 0.0 0.0
						}
					}
				}
			}
		}
		JOINT UpperLeg_R
		{
			OFFSET -2.19251 6.46944 0.0
			CHANNELS 6 Xposition Yposition Zposition Zrotation Xrotation Yrotation 
			JOINT LowerLeg_R
			{
				OFFSET -39.0811 -0.00228153 -0.0401928
				CHANNELS 6 Xposition Yposition Zposition Zrotation Xrotation Yrotation 
				JOINT Foot_R
				{
					OFFSET -40.9854 0.0 0.0
					CHANNELS 6 Xposition Yposition Zposition Zrotation Xrotation Yrotation 
					JOINT Toes_R
					{
						OFFSET -11.7543 0.0 0.0
						CHANNELS 6 Xposition Yposition Zposition Zrotation Xrotation Yrotation 
						End Site
						{
							OFFSET 0.0 0.0 0.0
						}
					}
				}
			}
		}
	}
}
MOTION
Frames:	4
Frame Time:	0.0333333
0.000000 0.000000 0.000000 0.000000 0.000000 -0.000000 -130.822000 90.867200 187.014000 86.701500 82.443800 2.139460 15.735700 0.000005 -0.000001 95.778300 80.683300 -95.716600 8.984550 -0.406207 -0.000000 10.775900 1.864140 -0.052518 16.377300 -0.000001 -0.000001 0.054468 -1.530850 1.135930 6.456720 -0.000001 -0.000000 -4.666980 -1.309910 0.062846 12.994200 -0.242716 4.980390 -91.149400 4.039460 -74.102600 5.348090 -0.000007 -0.000001 -73.107500 21.009100 -1.609960 24.328600 0.000019 0.000005 9.107340 27.057500 -19.412800 22.291600 -0.000001 0.000005 12.623200 5.140950 4.158820 12.994500 -0.242716 -4.980390 88.858000 8.363700 -82.196400 -5.348130 -0.000001 -0.000004 -53.534400 27.513700 -23.327300 -24.328900 0.000322 -0.000009 2.978540 4.025620 -36.555000 -22.291500 -0.000108 -0.000004 19.488300 5.427440 -3.851490 -2.192480 -6.469440 -0.000000 178.482000 -14.298000 -25.823700 39.081100 -0.000007 -0.000012 0.130961 -0.274912 25.472100 40.985400 -0.000006 -0.000013 2.379390 5.466520 -57.692700 11.754300 -0.000000 0.000003 -0.000101 -0.001681 -16.645700 -2.192510 6.469440 -0.000001 176.926000 26.529500 172.875000 -39.081100 -0.002282 -0.040193 -0.210700 0.399887 28.154500 -40.985400 0.000008 0.000006 1.545200 10.028400 -71.472300 -11.754300 -0.000006 -0.000006 -0.001892 -0.027359 -17.685600
0.000000 0.000000 0.000000 0.000000 0.000000 -0.000000 -128.743000 90.562200 186.913000 85.370400 81.980500 3.208330 15.735700 0.000005 -0.000001 96.164100 80.679400 -96.269900 8.984550 -0.406207 -0.000000 10.774000 1.984470 -0.398697 16.377300 -0.000001 -0.000001 0.046565 -1.526510 1.239770 6.456720 -0.000001 -0.000000 -4.818490 -1.362840 0.402994 12.994200 -0.242716 4.980390 -91.153000 4.037360 -74.047400 5.348090 -0.000007 -0.000001 -73.145500 20.770800 -1.382640 24.328600 0.000019 0.000005 8.823260 27.243700 -18.730800 22.291600 -0.000001 0.000005 12.656400 5.136570 4.262460 12.994500 -0.242716 -4.980390 88.839000 8.559980 -82.246400 -5.348130 -0.000001 -0.000004 -54.129900 27.522600 -22.339300 -24.328900 0.000322 -0.000009 2.777710 3.839740 -35.934800 -22.291500 -0.000108 -0.000004 19.702600 5.429740 -3.930070 -2.192480 -6.469440 -0.000000 178.153000 -14.476200 -27.202600 39.081100 -0.000007 -0.000012 0.105222 -0.223738 25.187300 40.985400 -0.000006 -0.000013 2.762310 4.504530 -55.626900 11.754300 -0.000000 0.000003 -0.000121 -0.002009 -16.659100 -2.192510 6.469440 -0.000001 176.325000 26.202500 174.177000 -39.081100 -0.002282 -0.040193 -0.197770 0.374853 28.209900 -40.985400 0.000008 0.000006 1.472170 10.143200 -72.839400 -11.754300 -0.000006 -0.000006 -0.001780 -0.025928 -17.627400
0.000000 0.000000 0.000000 0.000000 0.000000 -0.000000 -126.152000 90.065000 186.761000 85.111200 81.368300 3.453760 15.735700 0.000005 -0.000001 96.528600 80.740000 -96.916300 8.984550 -0.406207 -0.000000 10.646300 2.081180 -0.968869 16.377300 -0.000001 -0.000001 0.361098 -1.553580 1.301230 6.456720 -0.000001 -0.000000 -4.570350 -1.527270 1.032930 12.994200 -0.242716 4.980390 -91.130200 3.927900 -73.934200 5.348090 -0.000007 -0.000001 -73.078400 20.536500 -1.472110 24.328600 0.000019 0.000005 8.625660 27.404000 -18.241200 22.291600 -0.000001 0.000005 12.630700 5.129050 4.439660 12.994500 -0.242716 -4.980390 88.804600 8.693450 -82.139600 -5.348130 -0.000001 -0.000004 -55.135900 27.978200 -20.873600 -24.328900 0.000322 -0.000009 2.633500 3.792570 -34.825200 -22.291500 -0.000108 -0.000004 19.648500 5.430760 -3.965320 -2.192480 -6.469440 -0.000000 178.489000 -13.860100 -27.958600 39.081100 -0.000007 -0.000012 0.048893 -0.089397 28.674700 40.985400 -0.000006 -0.000013 2.790700 2.754010 -53.799200 11.754300 -0.000000 0.000003 0.000146 0.002500 -16.475900 -2.192510 6.469440 -0.000001 175.447000 25.069600 175.798000 -39.081100 -0.002282 -0.040193 -0.140940 0.262558 28.783800 -40.985400 0.000008 0.000006 1.873880 9.421030 -74.906600 -11.754300 -0.000006 -0.000006 -0.001623 -0.023899 -17.544900
0.000000 0.000000 0.000000 0.000000 0.000000 -0.000000 -123.246000 89.468500 186.490000 87.889100 80.670100 0.747309 15.735700 0.000005 -0.000001 96.541100 80.902500 -97.425900 8.984550 -0.406207 -0.000000 10.331800 2.039120 -1.952930 16.377300 -0.000001 -0.000001 0.605370 -1.583460 1.251090 6.456720 -0.000001 -0.000000 -3.804780 -1.647780 1.856100 12.994200 -0.242716 4.980390 -91.152300 3.955480 -73.743900 5.348090 -0.000007 -0.000001 -72.608500 20.281300 -1.781770 24.328600 0.000019 0.000005 8.647110 27.508800 -18.224200 22.291600 -0.000001 0.000005 12.674900 5.121780 4.610280 12.994500 -0.242716 -4.980390 88.724900 8.954760 -81.862000 -5.348130 -0.000001 -0.000004 -56.298000 28.809400 -18.935500 -24.328900 0.000322 -0.000009 2.533830 3.819880 -33.606000 -22.291500 -0.000108 -0.000004 19.320500 5.431130 -3.978000 -2.192480 -6.469440 -0.000000 178.575000 -12.557800 -28.568000 39.081100 -0.000007 -0.000012 -0.039006 0.057692 34.063600 40.985400 -0.000006 -0.000013 2.471850 1.398490 -57.608600 11.754300 -0.000000 0.000003 -0.000004 -0.000058 -16.579800 -2.192510 6.469440 -0.000001 174.236000 23.173300 177.164000 -39.081100 -0.002282 -0.040193 0.017439 -0.024459 30.026600 -40.985400 0.000008 0.000006 2.982740 7.620030 -77.127500 -11.754300 -0.000006 -0.000006 -0.001396 -0.020883 -17.422300
